<svg xmlns="http://www.w3.org/2000/svg" viewBox="0 0 24 24" fill="none" stroke="currentColor" stroke-width="1.5"><path d="M21 11.5a8.38 8.38 0 0 1-1.77 4.77L21 21l-4.8-1.53A8.5 8.5 0 1 1 21 11.5z"/><path d="M17.5 14.5c-.25-.13-1.5-.75-1.73-.83-.23-.08-.4-.12-.57.13-.18.25-.7.83-.86.99-.16.16-.32.18-.57.06-.23-.12-.97-.36-1.84-1.14-.68-.62-1.14-1.38-1.27-1.61-.13-.23 0-.35.1-.47.1-.12.23-.32.34-.48.11-.16.15-.27.23-.41.08-.13.04-.25-.02-.36-.07-.12-.57-1.37-.78-1.87-.2-.48-.4-.41-.57-.41-.15 0-.33-.02-.51-.02-.18 0-.47.07-.72.35-.25.28-.94.92-.94 2.24 0 1.33.96 2.61 1.1 2.79.14.18 1.9 2.92 4.62 3.98 2.73 1.06 2.73.71 3.22.67.49-.04 1.6-.65 1.82-1.28.22-.63.22-1.17.15-1.28-.06-.11-.23-.16-.48-.28z"/></svg>